<?xml version="1.0" encoding="UTF-8"?>
<svg xmlns="http://www.w3.org/2000/svg" xmlns:xlink="http://www.w3.org/1999/xlink" width="100px" height="px" viewBox="0 0 100 100" version="1.1">
<g id="surface1">
<path style=" stroke:none;fill-rule:nonzero;fill:rgb(8.235294%,44.705882%,71.372549%);fill-opacity:1;" d="M 18.445312 85.003906 L 11.425781 6.25 L 88.574219 6.25 L 81.546875 84.992188 L 49.953125 93.75 Z M 18.445312 85.003906 "/>
<path style=" stroke:none;fill-rule:nonzero;fill:rgb(20%,66.27451%,86.27451%);fill-opacity:1;" d="M 50 87.054688 L 75.53125 79.976562 L 81.539062 12.691406 L 50 12.691406 Z M 50 87.054688 "/>
<path style=" stroke:none;fill-rule:nonzero;fill:rgb(100%,100%,100%);fill-opacity:1;" d="M 50 41.222656 L 62.78125 41.222656 L 63.664062 31.332031 L 50 31.332031 L 50 21.671875 L 74.21875 21.671875 L 73.988281 24.261719 L 71.617188 50.882812 L 50 50.882812 Z M 50 41.222656 "/>
<path style=" stroke:none;fill-rule:nonzero;fill:rgb(92.156863%,92.156863%,92.156863%);fill-opacity:1;" d="M 50.058594 66.304688 L 50.015625 66.320312 L 39.257812 63.414062 L 38.570312 55.710938 L 28.875 55.710938 L 30.226562 70.875 L 50.011719 76.367188 L 50.058594 76.355469 Z M 50.058594 66.304688 "/>
<path style=" stroke:none;fill-rule:nonzero;fill:rgb(100%,100%,100%);fill-opacity:1;" d="M 61.960938 50.472656 L 60.796875 63.40625 L 50.023438 66.3125 L 50.023438 76.363281 L 69.824219 70.875 L 69.972656 69.242188 L 71.648438 50.472656 Z M 61.960938 50.472656 "/>
<path style=" stroke:none;fill-rule:nonzero;fill:rgb(92.156863%,92.156863%,92.156863%);fill-opacity:1;" d="M 50.035156 21.671875 L 50.035156 31.332031 L 26.703125 31.332031 L 26.507812 29.160156 L 26.070312 24.261719 L 25.835938 21.671875 Z M 50.035156 21.671875 "/>
<path style=" stroke:none;fill-rule:nonzero;fill:rgb(92.156863%,92.156863%,92.156863%);fill-opacity:1;" d="M 50 41.222656 L 50 50.882812 L 39.378906 50.882812 L 39.183594 48.710938 L 38.746094 43.8125 L 38.515625 41.222656 Z M 50 41.222656 "/>
</g>
</svg>
