<?xml version="1.0" encoding="UTF-8"?>
<svg xmlns="http://www.w3.org/2000/svg" xmlns:xlink="http://www.w3.org/1999/xlink" width="100px" height="px" viewBox="0 0 100 100" version="1.1">
<g id="surface1">
<path style=" stroke:none;fill-rule:nonzero;fill:rgb(86.666667%,29.803922%,20.784314%);fill-opacity:1;" d="M 92.101562 46.101562 L 53.898438 7.898438 C 52.839844 6.839844 51.40625 6.246094 49.914062 6.246094 C 48.417969 6.246094 46.984375 6.839844 45.929688 7.898438 L 37.992188 15.835938 L 48.054688 25.898438 C 50.476562 25.074219 53.15625 25.703125 54.957031 27.515625 C 56.761719 29.328125 57.371094 32.011719 56.53125 34.429688 L 66.21875 44.117188 C 69.203125 43.089844 72.496094 44.289062 74.128906 46.988281 C 75.757812 49.6875 75.28125 53.160156 72.984375 55.324219 C 70.6875 57.488281 67.195312 57.753906 64.59375 55.964844 C 61.996094 54.175781 61 50.8125 62.203125 47.898438 L 53.15625 38.851562 L 53.15625 62.652344 C 55.980469 64.050781 57.445312 67.230469 56.671875 70.289062 C 55.898438 73.34375 53.101562 75.445312 49.949219 75.335938 C 46.800781 75.222656 44.15625 72.929688 43.601562 69.828125 C 43.042969 66.726562 44.730469 63.65625 47.644531 62.460938 L 47.644531 38.4375 C 45.992188 37.757812 44.675781 36.449219 43.992188 34.796875 C 43.308594 33.148438 43.3125 31.292969 44.003906 29.644531 L 34.097656 19.730469 L 7.898438 45.9375 C 6.839844 46.992188 6.242188 48.425781 6.242188 49.921875 C 6.242188 51.417969 6.839844 52.855469 7.898438 53.910156 L 46.101562 92.101562 C 47.160156 93.160156 48.59375 93.753906 50.085938 93.753906 C 51.582031 93.753906 53.015625 93.160156 54.070312 92.101562 L 92.101562 54.0625 C 93.160156 53.007812 93.757812 51.574219 93.757812 50.078125 C 93.757812 48.582031 93.160156 47.144531 92.101562 46.089844 "/>
<path style=" stroke:none;fill-rule:nonzero;fill:rgb(100%,100%,100%);fill-opacity:1;" d="M 37.992188 15.835938 L 48.054688 25.898438 C 50.476562 25.074219 53.15625 25.703125 54.957031 27.515625 C 56.761719 29.328125 57.371094 32.011719 56.53125 34.429688 L 66.21875 44.117188 C 69.203125 43.089844 72.496094 44.289062 74.128906 46.988281 C 75.757812 49.6875 75.28125 53.160156 72.984375 55.324219 C 70.6875 57.488281 67.195312 57.753906 64.59375 55.964844 C 61.996094 54.175781 61 50.8125 62.203125 47.898438 L 53.15625 38.851562 L 53.15625 62.652344 C 55.980469 64.050781 57.445312 67.230469 56.671875 70.289062 C 55.898438 73.34375 53.101562 75.445312 49.949219 75.335938 C 46.800781 75.222656 44.15625 72.929688 43.601562 69.828125 C 43.042969 66.726562 44.730469 63.65625 47.644531 62.460938 L 47.644531 38.4375 C 45.992188 37.757812 44.675781 36.449219 43.992188 34.796875 C 43.308594 33.148438 43.3125 31.292969 44.003906 29.644531 L 34.097656 19.730469 "/>
</g>
</svg>
