<?xml version="1.0" encoding="UTF-8"?>
<svg xmlns="http://www.w3.org/2000/svg" xmlns:xlink="http://www.w3.org/1999/xlink" width="100px" height="px" viewBox="0 0 100 100" version="1.1">
<g id="surface1">
<path style=" stroke:none;fill-rule:nonzero;fill:rgb(89.411765%,30.980392%,14.901961%);fill-opacity:1;" d="M 18.445312 85.003906 L 11.421875 6.25 L 88.578125 6.25 L 81.546875 84.992188 L 49.953125 93.75 Z M 18.445312 85.003906 "/>
<path style=" stroke:none;fill-rule:nonzero;fill:rgb(94.509804%,40%,16.470588%);fill-opacity:1;" d="M 50 87.054688 L 75.53125 79.976562 L 81.539062 12.691406 L 50 12.691406 Z M 50 87.054688 "/>
<path style=" stroke:none;fill-rule:nonzero;fill:rgb(92.156863%,92.156863%,92.156863%);fill-opacity:1;" d="M 50 41.898438 L 37.21875 41.898438 L 36.335938 32.007812 L 50 32.007812 L 50 22.347656 L 25.78125 22.347656 L 26.011719 24.941406 L 28.382812 51.554688 L 50 51.554688 Z M 50 41.898438 "/>
<path style=" stroke:none;fill-rule:nonzero;fill:rgb(92.156863%,92.156863%,92.156863%);fill-opacity:1;" d="M 50 66.980469 L 49.957031 66.992188 L 39.199219 64.089844 L 38.511719 56.386719 L 28.816406 56.386719 L 30.167969 71.550781 L 49.957031 77.042969 L 50 77.03125 Z M 50 66.980469 "/>
<path style=" stroke:none;fill-rule:nonzero;fill:rgb(100%,100%,100%);fill-opacity:1;" d="M 49.964844 41.898438 L 49.964844 51.554688 L 61.859375 51.554688 L 60.742188 64.085938 L 49.964844 66.992188 L 49.964844 77.039062 L 69.769531 71.550781 L 69.914062 69.917969 L 72.179688 44.492188 L 72.417969 41.898438 Z M 49.964844 41.898438 "/>
<path style=" stroke:none;fill-rule:nonzero;fill:rgb(100%,100%,100%);fill-opacity:1;" d="M 49.964844 22.347656 L 49.964844 32.007812 L 73.296875 32.007812 L 73.492188 29.835938 L 73.929688 24.941406 L 74.164062 22.347656 Z M 49.964844 22.347656 "/>
</g>
</svg>
