<?xml version="1.0" encoding="UTF-8"?>
<svg xmlns="http://www.w3.org/2000/svg" xmlns:xlink="http://www.w3.org/1999/xlink" width="100px" height="px" viewBox="0 0 100 100" version="1.1">
<g id="surface1">
<path style=" stroke:none;fill-rule:nonzero;fill:rgb(96.078431%,87.058824%,9.803922%);fill-opacity:1;" d="M 6.25 6.25 L 93.75 6.25 L 93.75 93.75 L 6.25 93.75 Z M 6.25 6.25 "/>
<path style=" stroke:none;fill-rule:nonzero;fill:rgb(0%,0%,0%);fill-opacity:1;" d="M 65.027344 74.609375 C 66.550781 77.699219 69.707031 79.644531 73.152344 79.609375 C 76.558594 79.609375 78.738281 77.90625 78.738281 75.546875 C 78.738281 72.734375 76.5 71.726562 72.75 70.085938 L 70.695312 69.207031 C 64.757812 66.679688 60.820312 63.511719 60.820312 56.820312 C 60.820312 50.652344 65.507812 45.957031 72.859375 45.957031 C 77.726562 45.605469 82.332031 48.199219 84.554688 52.539062 L 78.125 56.648438 C 77.269531 54.492188 75.167969 53.089844 72.847656 53.125 C 71.847656 53.023438 70.851562 53.351562 70.101562 54.019531 C 69.355469 54.691406 68.921875 55.644531 68.914062 56.648438 C 68.914062 59.117188 70.441406 60.117188 73.96875 61.648438 L 76.023438 62.53125 C 83.011719 65.527344 86.960938 68.582031 86.960938 75.445312 C 86.960938 82.851562 81.148438 86.90625 73.335938 86.90625 C 67.121094 87.300781 61.253906 84.007812 58.351562 78.496094 Z M 35.980469 75.320312 C 37.273438 77.613281 38.445312 79.550781 41.273438 79.550781 C 43.972656 79.550781 45.679688 78.492188 45.679688 74.382812 L 45.679688 46.425781 L 53.898438 46.425781 L 53.898438 74.492188 C 53.898438 83.007812 48.898438 86.882812 41.621094 86.882812 C 36.355469 87.167969 31.453125 84.1875 29.289062 79.382812 Z M 35.980469 75.320312 "/>
</g>
</svg>
