<?xml version="1.0" encoding="UTF-8"?>
<svg xmlns="http://www.w3.org/2000/svg" xmlns:xlink="http://www.w3.org/1999/xlink" width="100px" height="px" viewBox="0 0 100 100" version="1.1">
<g id="surface1">
<path style=" stroke:none;fill-rule:nonzero;fill:rgb(51.372549%,80.392157%,16.078431%);fill-opacity:1;" d="M 50 93.75 C 48.820312 93.75 47.660156 93.441406 46.636719 92.851562 L 35.9375 86.515625 C 34.339844 85.621094 35.117188 85.304688 35.648438 85.121094 C 37.34375 84.597656 38.972656 83.863281 40.488281 82.933594 C 40.746094 82.816406 41.046875 82.835938 41.285156 82.992188 L 49.507812 87.878906 C 49.816406 88.042969 50.1875 88.042969 50.5 87.878906 L 82.5625 69.371094 C 82.867188 69.1875 83.054688 68.859375 83.054688 68.503906 L 83.054688 31.484375 C 83.054688 31.121094 82.863281 30.789062 82.554688 30.601562 L 50.492188 12.109375 C 50.1875 11.9375 49.8125 11.9375 49.503906 12.109375 L 17.460938 30.605469 C 17.148438 30.789062 16.957031 31.125 16.953125 31.484375 L 16.953125 68.488281 C 16.953125 68.84375 17.144531 69.171875 17.457031 69.34375 L 26.25 74.417969 C 31.015625 76.800781 33.933594 73.992188 33.933594 71.175781 L 33.933594 34.640625 C 33.933594 34.121094 34.355469 33.703125 34.871094 33.703125 L 38.933594 33.703125 C 39.453125 33.703125 39.871094 34.121094 39.871094 34.640625 L 39.871094 71.179688 C 39.871094 77.539062 36.410156 81.179688 30.378906 81.179688 C 27.777344 81.222656 25.214844 80.527344 22.992188 79.171875 L 14.566406 74.335938 C 12.484375 73.125 11.203125 70.898438 11.203125 68.488281 L 11.203125 31.484375 C 11.195312 29.070312 12.480469 26.835938 14.566406 25.625 L 46.632812 7.113281 C 48.730469 5.964844 51.269531 5.964844 53.367188 7.113281 L 85.429688 25.625 C 87.511719 26.835938 88.792969 29.0625 88.796875 31.46875 L 88.796875 68.488281 C 88.792969 70.898438 87.511719 73.125 85.429688 74.335938 L 53.367188 92.851562 C 52.34375 93.441406 51.183594 93.75 50 93.75 Z M 50 93.75 "/>
<path style=" stroke:none;fill-rule:nonzero;fill:rgb(51.372549%,80.392157%,16.078431%);fill-opacity:1;" d="M 43.917969 56.101562 C 43.917969 55.585938 44.339844 55.164062 44.855469 55.164062 L 49.003906 55.164062 C 49.460938 55.167969 49.851562 55.5 49.925781 55.949219 C 50.550781 60.171875 52.425781 62.300781 60.902344 62.300781 C 67.65625 62.300781 70.535156 60.773438 70.535156 57.1875 C 70.535156 55.121094 69.71875 53.585938 59.222656 52.558594 C 50.445312 51.691406 45.023438 49.746094 45.023438 42.734375 C 45.023438 36.265625 50.476562 32.40625 59.617188 32.40625 C 69.886719 32.40625 74.972656 35.972656 75.617188 43.621094 C 75.636719 43.878906 75.546875 44.136719 75.375 44.324219 C 75.199219 44.515625 74.953125 44.628906 74.695312 44.632812 L 70.519531 44.632812 C 70.085938 44.625 69.714844 44.324219 69.617188 43.90625 C 68.621094 39.464844 66.179688 38.046875 59.617188 38.046875 C 52.242188 38.046875 51.386719 40.617188 51.386719 42.539062 C 51.386719 44.871094 52.398438 45.554688 62.355469 46.867188 C 72.210938 48.171875 76.890625 50.015625 76.890625 56.941406 C 76.890625 63.929688 71.066406 67.929688 60.90625 67.929688 C 46.859375 67.945312 43.917969 61.507812 43.917969 56.101562 Z M 43.917969 56.101562 "/>
</g>
</svg>
