<?xml version="1.0" encoding="UTF-8"?>
<svg xmlns="http://www.w3.org/2000/svg" xmlns:xlink="http://www.w3.org/1999/xlink" width="100px" height="100px" viewBox="0 0 100 100" version="1.1">
<g id="surface1">
<path style=" stroke:none;fill-rule:nonzero;fill:rgb(100%,100%,100%);fill-opacity:1;" d="M 15 0 L 85 0 C 93.285156 0 100 6.714844 100 15 L 100 85 C 100 93.285156 93.285156 100 85 100 L 15 100 C 6.714844 100 0 93.285156 0 85 L 0 15 C 0 6.714844 6.714844 0 15 0 Z M 15 0 "/>
<path style=" stroke:none;fill-rule:nonzero;fill:rgb(38.039216%,85.490196%,98.431373%);fill-opacity:1;" d="M 57.03125 50 C 57.03125 53.882812 53.882812 57.03125 50 57.03125 C 46.117188 57.03125 42.96875 53.882812 42.96875 50 C 42.96875 46.117188 46.117188 42.96875 50 42.96875 C 53.882812 42.96875 57.03125 46.117188 57.03125 50 Z M 57.03125 50 "/>
<path style="fill:none;stroke-width:18;stroke-linecap:butt;stroke-linejoin:miter;stroke:rgb(38.039216%,85.490196%,98.431373%);stroke-opacity:1;stroke-miterlimit:4;" d="M 317.46 291.42 C 366.5 203.16 377 118.74 340.92 102.88 C 304.84 87.04 235.84 145.74 186.8 234 C 137.76 322.28 127.24 406.7 163.32 422.58 C 199.38 438.46 268.36 379.78 317.42 291.52 Z M 194.58 291.52 C 243.64 379.78 312.62 438.46 348.68 422.58 C 384.76 406.7 374.24 322.28 325.2 234 C 276.16 145.74 207.16 87.04 171.08 102.88 C 135 118.74 145.5 203.16 194.54 291.44 Z M 256.04 326.94 C 357.1 326.94 439.02 295.14 439 255.94 C 438.98 216.74 357.06 184.96 256 184.96 C 154.94 184.96 73.02 216.74 73 255.94 C 72.98 295.14 154.9 326.94 255.94 326.94 Z M 256.04 326.94 " transform="matrix(0.195312,0,0,0.195312,0,0)"/>
</g>
</svg>
