<?xml version="1.0" encoding="UTF-8"?>
<svg xmlns="http://www.w3.org/2000/svg" xmlns:xlink="http://www.w3.org/1999/xlink" width="100px" height="px" viewBox="0 0 100 100" version="1.1">
<g id="surface1">
<path style=" stroke:none;fill-rule:nonzero;fill:rgb(12.941176%,45.882353%,60.784314%);fill-opacity:1;" d="M 15 0 L 85 0 C 93.285156 0 100 6.714844 100 15 L 100 85 C 100 93.285156 93.285156 100 85 100 L 15 100 C 6.714844 100 0 93.285156 0 85 L 0 15 C 0 6.714844 6.714844 0 15 0 Z M 15 0 "/>
<path style="fill:none;stroke-width:20;stroke-linecap:butt;stroke-linejoin:miter;stroke:rgb(100%,100%,100%);stroke-opacity:1;stroke-miterlimit:4;" d="M 446 256 C 446 360.94 360.94 446 256 446 C 151.06 446 66 360.94 66 256 C 66 151.06 151.06 66 256 66 C 360.94 66 446 151.06 446 256 Z M 446 256 " transform="matrix(0.195312,0,0,0.195312,0,0)"/>
<path style=" stroke:none;fill-rule:nonzero;fill:rgb(100%,100%,100%);fill-opacity:1;" d="M 39.84375 85.15625 L 50.78125 53.125 L 62.109375 84.179688 L 67.773438 81.054688 L 78.710938 49.414062 C 80.664062 44.335938 81.25 40.234375 81.25 36.71875 C 81.445312 30.273438 78.710938 24.609375 74.023438 24.023438 C 69.726562 23.632812 67.382812 27.734375 67.578125 30.273438 C 67.96875 36.132812 73.828125 39.453125 73.828125 47.460938 C 73.828125 53.320312 70.117188 62.5 67.578125 71.289062 L 54.882812 33.398438 C 57.03125 33.203125 58.984375 33.203125 58.984375 33.203125 C 60.9375 33.007812 60.742188 30.078125 58.789062 30.273438 C 52.34375 30.859375 46.484375 30.664062 40.039062 30.273438 C 38.085938 30.078125 37.890625 33.007812 39.84375 33.203125 C 39.84375 33.203125 41.601562 33.203125 43.554688 33.398438 L 49.023438 48.4375 L 41.210938 71.679688 L 28.515625 33.398438 C 30.664062 33.203125 32.421875 33.203125 32.421875 33.203125 C 34.375 33.007812 34.179688 30.078125 32.226562 30.273438 C 26.367188 30.664062 20.703125 31.054688 19.335938 30.078125 L 17.578125 34.960938 L 34.765625 82.421875 Z M 39.84375 85.15625 "/>
</g>
</svg>
